<svg width="119" height="45" viewBox="0 0 119 45" fill="none" xmlns="http://www.w3.org/2000/svg">
<path d="M20.6204 31H9.50404V14.7835H20.6204V18.029H12.7496V21.2746H18.076V24.5202H12.7496V27.7544H20.6204V31ZM25.664 31L21.0501 18.8885H24.5671L27.2133 26.4426L29.8482 18.8885H33.3765L28.7626 31H25.664ZM45.9177 31H45.1713L43.9726 29.3376C43.6786 29.6015 43.3657 29.8503 43.034 30.084C42.7098 30.3102 42.3668 30.51 42.0049 30.6834C41.6431 30.8492 41.2699 30.9812 40.8854 31.0792C40.5084 31.1772 40.1239 31.2262 39.7319 31.2262C38.88 31.2262 38.0771 31.0829 37.3232 30.7964C36.5768 30.51 35.9209 30.0953 35.3555 29.5525C34.7976 29.0021 34.3566 28.3312 34.0324 27.5396C33.7082 26.748 33.5461 25.8471 33.5461 24.8368C33.5461 23.8944 33.7082 23.0312 34.0324 22.2471C34.3566 21.4555 34.7976 20.777 35.3555 20.2116C35.9209 19.6462 36.5768 19.2089 37.3232 18.8998C38.0771 18.5832 38.88 18.4248 39.7319 18.4248C40.1239 18.4248 40.5122 18.4738 40.8967 18.5719C41.2812 18.6699 41.6544 18.8056 42.0162 18.979C42.3781 19.1524 42.7212 19.3559 43.0453 19.5896C43.377 19.8233 43.6862 20.0759 43.9726 20.3473L45.1713 18.9111H45.9177V31ZM42.8079 24.8368C42.8079 24.4146 42.7249 24.0075 42.5591 23.6155C42.4007 23.2159 42.1821 22.8654 41.9032 22.5638C41.6242 22.2547 41.2963 22.0097 40.9193 21.8287C40.5499 21.6403 40.1541 21.546 39.7319 21.546C39.3097 21.546 38.9102 21.6176 38.5332 21.7609C38.1638 21.9041 37.8396 22.1152 37.5607 22.3942C37.2893 22.6731 37.0744 23.0199 36.9161 23.4346C36.7578 23.8417 36.6786 24.3091 36.6786 24.8368C36.6786 25.3646 36.7578 25.8357 36.9161 26.2504C37.0744 26.6575 37.2893 27.0005 37.5607 27.2795C37.8396 27.5584 38.1638 27.7695 38.5332 27.9128C38.9102 28.056 39.3097 28.1276 39.7319 28.1276C40.1541 28.1276 40.5499 28.0371 40.9193 27.8562C41.2963 27.6677 41.6242 27.4227 41.9032 27.1212C42.1821 26.8121 42.4007 26.4615 42.5591 26.0695C42.7249 25.6699 42.8079 25.259 42.8079 24.8368ZM51.3911 31H48.2812V14.071H51.3911V31ZM57.3959 15.5977C57.3959 15.8842 57.3394 16.1518 57.2263 16.4006C57.1208 16.6494 56.9737 16.868 56.7853 17.0565C56.5968 17.2374 56.3744 17.3845 56.1181 17.4975C55.8693 17.6031 55.6016 17.6559 55.3152 17.6559C55.0287 17.6559 54.7573 17.6031 54.5009 17.4975C54.2521 17.3845 54.0335 17.2374 53.845 17.0565C53.6641 16.868 53.5171 16.6494 53.404 16.4006C53.2985 16.1518 53.2457 15.8842 53.2457 15.5977C53.2457 15.3188 53.2985 15.0549 53.404 14.8061C53.5171 14.5498 53.6641 14.3311 53.845 14.1502C54.0335 13.9617 54.2521 13.8147 54.5009 13.7092C54.7573 13.5961 55.0287 13.5395 55.3152 13.5395C55.6016 13.5395 55.8693 13.5961 56.1181 13.7092C56.3744 13.8147 56.5968 13.9617 56.7853 14.1502C56.9737 14.3311 57.1208 14.5498 57.2263 14.8061C57.3394 15.0549 57.3959 15.3188 57.3959 15.5977ZM56.8644 31H53.7546V18.8885H56.8644V31ZM65.3006 31C64.5543 31 63.8531 30.8605 63.1972 30.5816C62.5413 30.2951 61.9646 29.9068 61.467 29.4168C60.977 28.9192 60.5887 28.3425 60.3022 27.6866C60.0233 27.0307 59.8838 26.3296 59.8838 25.5832V21.9871H58.3798V18.9111H59.8838V14.071H62.9598V18.9111H67.6415V21.9871H62.9598V25.5832C62.9598 25.9074 63.0201 26.2127 63.1407 26.4992C63.2613 26.7781 63.4272 27.0231 63.6383 27.2342C63.8494 27.4453 64.0982 27.615 64.3846 27.7431C64.6711 27.8638 64.9765 27.9241 65.3006 27.9241H67.6415V31H65.3006ZM72.3007 35.6139V32.504L74.0196 32.5267C74.3211 32.5267 74.6114 32.4777 74.8903 32.3796C75.1693 32.2816 75.4256 32.1459 75.6593 31.9725C75.9006 31.7991 76.1117 31.5918 76.2926 31.3506C76.4735 31.1169 76.6205 30.8605 76.7336 30.5816C76.3944 30.7248 76.0476 30.8681 75.6932 31.0113C75.3464 31.1546 74.9959 31.2262 74.6415 31.2262C73.8952 31.2262 73.194 31.0942 72.5381 30.8304C71.8822 30.5665 71.3055 30.1933 70.8079 29.7108C70.3179 29.2208 69.9296 28.629 69.6431 27.9354C69.3642 27.2342 69.2247 26.4502 69.2247 25.5832V18.8885H72.3007V25.5832C72.3007 26.0129 72.361 26.3899 72.4816 26.714C72.6098 27.0307 72.7794 27.2983 72.9905 27.517C73.2016 27.728 73.4466 27.8864 73.7255 27.9919C74.012 28.0975 74.3174 28.1502 74.6415 28.1502C74.9582 28.1502 75.256 28.0786 75.5349 27.9354C75.8214 27.7846 76.0702 27.5886 76.2813 27.3473C76.4924 27.1061 76.6582 26.8347 76.7789 26.5331C76.8995 26.224 76.9598 25.9074 76.9598 25.5832V18.8885H80.0697V29.4733C80.0621 30.3253 79.8963 31.1244 79.5721 31.8708C79.2479 32.6171 78.8031 33.2693 78.2377 33.8271C77.6798 34.385 77.0277 34.8261 76.2813 35.1503C75.5349 35.4744 74.7358 35.6365 73.8839 35.6365L72.3007 35.6139ZM86.2329 29.8465C86.2329 30.1179 86.1838 30.3743 86.0858 30.6155C85.9878 30.8492 85.8521 31.0528 85.6787 31.2262C85.5053 31.3996 85.3018 31.5353 85.0681 31.6333C84.8344 31.7388 84.5818 31.7916 84.3104 31.7916C84.0465 31.7916 83.794 31.7388 83.5527 31.6333C83.319 31.5353 83.1117 31.3996 82.9307 31.2262C82.7573 31.0528 82.6179 30.8492 82.5123 30.6155C82.4143 30.3743 82.3653 30.1179 82.3653 29.8465C82.3653 29.5827 82.4143 29.3339 82.5123 29.1002C82.6179 28.8664 82.7573 28.6629 82.9307 28.4895C83.1117 28.3161 83.319 28.1804 83.5527 28.0824C83.794 27.9768 84.0465 27.9241 84.3104 27.9241C84.5818 27.9241 84.8344 27.9768 85.0681 28.0824C85.3018 28.1804 85.5053 28.3161 85.6787 28.4895C85.8521 28.6629 85.9878 28.8664 86.0858 29.1002C86.1838 29.3339 86.2329 29.5827 86.2329 29.8465Z" fill="#1F2937"/>
<path d="M98.4122 24.5202V21.2746C98.4122 20.8298 98.3255 20.4114 98.1521 20.0194C97.9862 19.6198 97.7563 19.273 97.4623 18.979C97.1683 18.6849 96.8215 18.455 96.4219 18.2891C96.0299 18.1157 95.6114 18.029 95.1666 18.029C94.7218 18.029 94.2996 18.1157 93.9001 18.2891C93.508 18.455 93.165 18.6849 92.871 18.979C92.577 19.273 92.3433 19.6198 92.1699 20.0194C92.004 20.4114 91.9211 20.8298 91.9211 21.2746V24.5202H98.4122ZM101.658 31H98.4122V27.7544H91.9211V31H88.6868V21.2746C88.6868 20.3775 88.8564 19.5369 89.1957 18.7528C89.535 17.9612 89.9948 17.2714 90.5753 16.6833C91.1634 16.0953 91.8495 15.6316 92.6335 15.2924C93.4251 14.9531 94.2695 14.7835 95.1666 14.7835C96.0638 14.7835 96.9044 14.9531 97.6885 15.2924C98.4801 15.6316 99.1699 16.0953 99.7579 16.6833C100.346 17.2714 100.81 17.9612 101.149 18.7528C101.488 19.5369 101.658 20.3775 101.658 21.2746V31Z" fill="#6357D9"/>
<path d="M110.377 21.4994V30.4994H107.627V21.4994H110.377ZM108.354 11.8194C108.406 11.7251 108.495 11.6443 108.611 11.5874C108.726 11.5304 108.863 11.5 109.002 11.5C109.142 11.5 109.278 11.5304 109.393 11.5874C109.509 11.6443 109.598 11.7251 109.65 11.8194L109.998 12.4294C110.581 13.4644 111.689 14.2973 113.091 14.7564L114.077 15.0764C114.203 15.1188 114.31 15.1867 114.385 15.2719C114.46 15.3572 114.5 15.4562 114.5 15.5574C114.5 15.6585 114.46 15.7576 114.385 15.8428C114.31 15.928 114.203 15.9959 114.077 16.0384L113.035 16.3764C111.666 16.8223 110.577 17.6251 109.982 18.6264L109.644 19.1924C109.591 19.2845 109.502 19.3633 109.388 19.4186C109.274 19.474 109.139 19.5036 109.002 19.5036C108.865 19.5036 108.731 19.474 108.616 19.4186C108.502 19.3633 108.413 19.2845 108.36 19.1924L108.02 18.6274C107.426 17.6259 106.338 16.8227 104.969 16.3764L103.924 16.0384C103.798 15.996 103.69 15.9281 103.615 15.8428C103.54 15.7574 103.5 15.6582 103.5 15.5569C103.5 15.4555 103.54 15.3563 103.615 15.2709C103.69 15.1856 103.798 15.1177 103.924 15.0754L104.911 14.7554C106.314 14.297 107.422 13.4649 108.007 12.4304L108.354 11.8194Z" fill="#6357D9"/>
</svg>
